<svg xmlns="http://www.w3.org/2000/svg" viewBox="0 0 181.33 46.93"><defs><style>.cls-1,.cls-2{fill:#fff;}.cls-2{font-size:36px;font-family:Montserrat-SemiBold, Montserrat;font-weight:600;}</style></defs><g id="Layer_2" data-name="Layer 2"><g id="Layer_1-2" data-name="Layer 1"><path class="cls-1" d="M39.31,0V27.27A19.66,19.66,0,1,1,0,27.27V0H16.23L5.55,13.46a0,0,0,0,0,0,0h8.2a0,0,0,0,1,0,0,5.49,5.49,0,0,0-.07.91V31.3A5.92,5.92,0,0,0,20,37.21a6.07,6.07,0,0,0,5.56-6.14V14.45a5.49,5.49,0,0,0-.07-.91,0,0,0,0,1,0,0h8.2a0,0,0,0,0,0,0L23.09,0Z"/><text class="cls-2" transform="translate(48.67 33.99)">Uplogy</text></g></g></svg>